<svg xmlns="http://www.w3.org/2000/svg" xmlns:xlink="http://www.w3.org/1999/xlink" width="500" zoomAndPan="magnify" viewBox="0 0 375 374.999991" height="500" preserveAspectRatio="xMidYMid meet" version="1.0"><defs><g/></defs><rect x="-37.5" width="450" fill="#ffffff" y="-37.499999" height="449.999989" fill-opacity="1"/><rect x="-37.5" width="450" fill="#ffffff" y="-37.499999" height="449.999989" fill-opacity="1"/><rect x="-37.5" width="450" fill="#242424" y="-37.499999" height="449.999989" fill-opacity="1"/><g fill="#ffffff" fill-opacity="1"><g transform="translate(133.782857, 199.124987)"><g><path d="M 39.457031 -60.097656 C 39.457031 -57.023438 39.359375 -54.527344 39.359375 -52.128906 C 39.359375 -48.574219 39.457031 -45.214844 40.03125 -40.894531 C 39.359375 -38.015625 38.496094 -37.632812 37.632812 -37.632812 C 33.601562 -37.632812 29.472656 -38.59375 25.535156 -38.976562 C 22.558594 -39.265625 22.175781 -38.878906 22.175781 -40.222656 C 22.175781 -47.425781 22.753906 -52.320312 22.847656 -59.808594 C 21.695312 -63.839844 18.910156 -65.761719 16.222656 -65.761719 C 13.34375 -65.761719 10.464844 -63.550781 9.503906 -59.328125 C 9.214844 -40.03125 7.96875 -26.59375 7.679688 -7.296875 C 8.257812 -2.59375 11.328125 -0.289062 14.398438 -0.289062 C 17.472656 -0.289062 20.929688 -2.785156 21.023438 -7.777344 C 21.214844 -13.824219 21.214844 -17.761719 21.503906 -23.328125 C 21.503906 -25.34375 21.886719 -25.726562 22.847656 -25.726562 C 27.742188 -25.726562 32.929688 -24.480469 37.824219 -24.191406 C 40.609375 -23.808594 41.183594 -23.710938 41.183594 -22.367188 C 41.183594 -16.703125 40.03125 -12.671875 39.839844 -6.625 C 40.414062 -1.921875 43.488281 0.382812 46.558594 0.382812 C 49.726562 0.382812 52.992188 -2.113281 53.183594 -7.105469 C 53.472656 -14.976562 54.335938 -22.847656 54.335938 -30.625 C 54.335938 -42.335938 52.800781 -51.457031 52.800781 -60.574219 C 51.648438 -64.609375 48.863281 -66.527344 46.175781 -66.527344 C 43.296875 -66.527344 40.414062 -64.320312 39.457031 -60.097656 Z M 39.457031 -60.097656 "/></g></g></g><g fill="#ffffff" fill-opacity="1"><g transform="translate(195.798867, 199.124987)"><g><path d="M 3.457031 22.945312 C 3.359375 27.550781 2.878906 32.0625 2.878906 36.671875 C 2.878906 41.664062 4.800781 45.886719 7.871094 45.886719 C 10.753906 45.886719 12.769531 42.910156 13.632812 37.246094 C 15.359375 25.535156 16.222656 13.632812 17.472656 1.921875 C 17.953125 -3.359375 18.335938 -4.609375 21.886719 -4.609375 C 23.039062 -4.609375 24.574219 -4.414062 26.496094 -4.414062 C 35.808594 -4.414062 42.527344 -10.847656 42.527344 -19.007812 C 42.527344 -30.238281 33.023438 -35.039062 23.230469 -35.039062 C 12.382812 -35.039062 5.761719 -29.566406 5.761719 -22.078125 C 5.761719 -18.625 7.296875 -14.398438 7.296875 -10.753906 C 7.296875 0.574219 3.742188 11.617188 3.457031 22.945312 Z M 3.457031 22.945312 "/></g></g></g></svg>